<mxfile host="app.diagrams.net" modified="2021-07-19T08:37:21.810Z" agent="5.0 (Windows NT 10.0; Win64; x64) AppleWebKit/537.36 (KHTML, like Gecko) Chrome/91.0.4472.124 Safari/537.36" etag="DShrB1hoeC_onAObGFcz" version="14.9.0" type="github">
  <diagram id="C5RBs43oDa-KdzZeNtuy" name="Page-1">
    <mxGraphModel dx="2171" dy="1181" grid="1" gridSize="10" guides="1" tooltips="1" connect="1" arrows="1" fold="1" page="1" pageScale="1" pageWidth="827" pageHeight="1169" math="0" shadow="0">
      <root>
        <mxCell id="WIyWlLk6GJQsqaUBKTNV-0" />
        <mxCell id="WIyWlLk6GJQsqaUBKTNV-1" parent="WIyWlLk6GJQsqaUBKTNV-0" />
        <mxCell id="iy4I2APVL6kOR7OKOTB_-1" value="" style="edgeStyle=orthogonalEdgeStyle;rounded=0;orthogonalLoop=1;jettySize=auto;html=1;" edge="1" parent="WIyWlLk6GJQsqaUBKTNV-1" source="WIyWlLk6GJQsqaUBKTNV-3" target="iy4I2APVL6kOR7OKOTB_-0">
          <mxGeometry relative="1" as="geometry" />
        </mxCell>
        <mxCell id="WIyWlLk6GJQsqaUBKTNV-3" value="parse_args()&lt;br&gt;参数解析" style="rounded=1;whiteSpace=wrap;html=1;fontSize=12;glass=0;strokeWidth=1;shadow=0;" parent="WIyWlLk6GJQsqaUBKTNV-1" vertex="1">
          <mxGeometry x="50" y="30" width="120" height="40" as="geometry" />
        </mxCell>
        <mxCell id="iy4I2APVL6kOR7OKOTB_-3" value="" style="edgeStyle=orthogonalEdgeStyle;rounded=0;orthogonalLoop=1;jettySize=auto;html=1;" edge="1" parent="WIyWlLk6GJQsqaUBKTNV-1" source="iy4I2APVL6kOR7OKOTB_-0" target="iy4I2APVL6kOR7OKOTB_-2">
          <mxGeometry relative="1" as="geometry" />
        </mxCell>
        <mxCell id="iy4I2APVL6kOR7OKOTB_-4" value="List Yes" style="edgeLabel;html=1;align=center;verticalAlign=middle;resizable=0;points=[];" vertex="1" connectable="0" parent="iy4I2APVL6kOR7OKOTB_-3">
          <mxGeometry x="-0.1283" y="-1" relative="1" as="geometry">
            <mxPoint as="offset" />
          </mxGeometry>
        </mxCell>
        <mxCell id="iy4I2APVL6kOR7OKOTB_-6" value="" style="edgeStyle=orthogonalEdgeStyle;rounded=0;orthogonalLoop=1;jettySize=auto;html=1;" edge="1" parent="WIyWlLk6GJQsqaUBKTNV-1" source="iy4I2APVL6kOR7OKOTB_-0" target="iy4I2APVL6kOR7OKOTB_-5">
          <mxGeometry relative="1" as="geometry" />
        </mxCell>
        <mxCell id="iy4I2APVL6kOR7OKOTB_-7" value="Single Yes" style="edgeLabel;html=1;align=center;verticalAlign=middle;resizable=0;points=[];" vertex="1" connectable="0" parent="iy4I2APVL6kOR7OKOTB_-6">
          <mxGeometry x="-0.1982" y="1" relative="1" as="geometry">
            <mxPoint as="offset" />
          </mxGeometry>
        </mxCell>
        <mxCell id="iy4I2APVL6kOR7OKOTB_-0" value="tc_name_parse()&lt;br&gt;解析输入的test case" style="whiteSpace=wrap;html=1;rounded=1;shadow=0;strokeWidth=1;glass=0;" vertex="1" parent="WIyWlLk6GJQsqaUBKTNV-1">
          <mxGeometry x="50" y="100" width="120" height="50" as="geometry" />
        </mxCell>
        <mxCell id="iy4I2APVL6kOR7OKOTB_-2" value="tc_file_parse()&lt;br&gt;解析文本获取测试内容" style="whiteSpace=wrap;html=1;rounded=1;shadow=0;strokeWidth=1;glass=0;" vertex="1" parent="WIyWlLk6GJQsqaUBKTNV-1">
          <mxGeometry x="250" y="95" width="120" height="60" as="geometry" />
        </mxCell>
        <mxCell id="iy4I2APVL6kOR7OKOTB_-13" value="" style="edgeStyle=orthogonalEdgeStyle;rounded=0;orthogonalLoop=1;jettySize=auto;html=1;" edge="1" parent="WIyWlLk6GJQsqaUBKTNV-1" source="iy4I2APVL6kOR7OKOTB_-5" target="iy4I2APVL6kOR7OKOTB_-12">
          <mxGeometry relative="1" as="geometry" />
        </mxCell>
        <mxCell id="iy4I2APVL6kOR7OKOTB_-5" value="dev_file_parse()&lt;br&gt;解析config文件下的dev_plf.txt文件" style="rounded=1;whiteSpace=wrap;html=1;shadow=0;strokeWidth=1;glass=0;" vertex="1" parent="WIyWlLk6GJQsqaUBKTNV-1">
          <mxGeometry x="50" y="225" width="120" height="60" as="geometry" />
        </mxCell>
        <mxCell id="iy4I2APVL6kOR7OKOTB_-11" value="" style="endArrow=classic;html=1;exitX=0.5;exitY=1;exitDx=0;exitDy=0;entryX=1;entryY=0.5;entryDx=0;entryDy=0;" edge="1" parent="WIyWlLk6GJQsqaUBKTNV-1" source="iy4I2APVL6kOR7OKOTB_-2" target="iy4I2APVL6kOR7OKOTB_-5">
          <mxGeometry width="50" height="50" relative="1" as="geometry">
            <mxPoint x="320" y="180" as="sourcePoint" />
            <mxPoint x="280" y="250" as="targetPoint" />
            <Array as="points">
              <mxPoint x="290" y="220" />
            </Array>
          </mxGeometry>
        </mxCell>
        <mxCell id="iy4I2APVL6kOR7OKOTB_-17" value="" style="edgeStyle=orthogonalEdgeStyle;rounded=0;orthogonalLoop=1;jettySize=auto;html=1;" edge="1" parent="WIyWlLk6GJQsqaUBKTNV-1" source="iy4I2APVL6kOR7OKOTB_-12" target="iy4I2APVL6kOR7OKOTB_-16">
          <mxGeometry relative="1" as="geometry" />
        </mxCell>
        <mxCell id="iy4I2APVL6kOR7OKOTB_-19" value="" style="edgeStyle=orthogonalEdgeStyle;rounded=0;orthogonalLoop=1;jettySize=auto;html=1;" edge="1" parent="WIyWlLk6GJQsqaUBKTNV-1" source="iy4I2APVL6kOR7OKOTB_-12" target="iy4I2APVL6kOR7OKOTB_-18">
          <mxGeometry relative="1" as="geometry" />
        </mxCell>
        <mxCell id="iy4I2APVL6kOR7OKOTB_-12" value="wvt_env()建立环境，主要包括通讯层建立" style="rounded=1;whiteSpace=wrap;html=1;shadow=0;strokeWidth=1;glass=0;" vertex="1" parent="WIyWlLk6GJQsqaUBKTNV-1">
          <mxGeometry x="50" y="365" width="120" height="60" as="geometry" />
        </mxCell>
        <mxCell id="iy4I2APVL6kOR7OKOTB_-16" value="wvt_env.py" style="verticalLabelPosition=bottom;verticalAlign=top;html=1;shape=process;whiteSpace=wrap;rounded=1;size=0.14;arcSize=6;" vertex="1" parent="WIyWlLk6GJQsqaUBKTNV-1">
          <mxGeometry x="220" y="365" width="100" height="60" as="geometry" />
        </mxCell>
        <mxCell id="iy4I2APVL6kOR7OKOTB_-21" value="" style="edgeStyle=orthogonalEdgeStyle;rounded=0;orthogonalLoop=1;jettySize=auto;html=1;" edge="1" parent="WIyWlLk6GJQsqaUBKTNV-1" source="iy4I2APVL6kOR7OKOTB_-18" target="iy4I2APVL6kOR7OKOTB_-20">
          <mxGeometry relative="1" as="geometry" />
        </mxCell>
        <mxCell id="iy4I2APVL6kOR7OKOTB_-18" value="env_init()&lt;br&gt;初始化环境，reset相关设备" style="whiteSpace=wrap;html=1;rounded=1;shadow=0;strokeWidth=1;glass=0;" vertex="1" parent="WIyWlLk6GJQsqaUBKTNV-1">
          <mxGeometry x="50" y="505" width="120" height="60" as="geometry" />
        </mxCell>
        <mxCell id="iy4I2APVL6kOR7OKOTB_-23" value="" style="edgeStyle=orthogonalEdgeStyle;rounded=0;orthogonalLoop=1;jettySize=auto;html=1;" edge="1" parent="WIyWlLk6GJQsqaUBKTNV-1" source="iy4I2APVL6kOR7OKOTB_-20" target="iy4I2APVL6kOR7OKOTB_-22">
          <mxGeometry relative="1" as="geometry" />
        </mxCell>
        <mxCell id="iy4I2APVL6kOR7OKOTB_-24" value="Y" style="edgeLabel;html=1;align=center;verticalAlign=middle;resizable=0;points=[];" vertex="1" connectable="0" parent="iy4I2APVL6kOR7OKOTB_-23">
          <mxGeometry x="-0.2022" relative="1" as="geometry">
            <mxPoint as="offset" />
          </mxGeometry>
        </mxCell>
        <mxCell id="iy4I2APVL6kOR7OKOTB_-26" value="" style="edgeStyle=orthogonalEdgeStyle;rounded=0;orthogonalLoop=1;jettySize=auto;html=1;" edge="1" parent="WIyWlLk6GJQsqaUBKTNV-1" source="iy4I2APVL6kOR7OKOTB_-20" target="iy4I2APVL6kOR7OKOTB_-25">
          <mxGeometry relative="1" as="geometry" />
        </mxCell>
        <mxCell id="iy4I2APVL6kOR7OKOTB_-27" value="N" style="edgeLabel;html=1;align=center;verticalAlign=middle;resizable=0;points=[];" vertex="1" connectable="0" parent="iy4I2APVL6kOR7OKOTB_-26">
          <mxGeometry x="-0.0962" relative="1" as="geometry">
            <mxPoint as="offset" />
          </mxGeometry>
        </mxCell>
        <mxCell id="iy4I2APVL6kOR7OKOTB_-20" value="开启Sniffer?" style="rhombus;whiteSpace=wrap;html=1;rounded=1;shadow=0;strokeWidth=1;glass=0;" vertex="1" parent="WIyWlLk6GJQsqaUBKTNV-1">
          <mxGeometry x="70" y="635" width="80" height="85" as="geometry" />
        </mxCell>
        <mxCell id="iy4I2APVL6kOR7OKOTB_-22" value="运行FTS或者Ellisys Sniffer" style="whiteSpace=wrap;html=1;rounded=1;shadow=0;strokeWidth=1;glass=0;" vertex="1" parent="WIyWlLk6GJQsqaUBKTNV-1">
          <mxGeometry x="210" y="647.5" width="120" height="60" as="geometry" />
        </mxCell>
        <mxCell id="iy4I2APVL6kOR7OKOTB_-32" value="" style="edgeStyle=orthogonalEdgeStyle;rounded=0;orthogonalLoop=1;jettySize=auto;html=1;" edge="1" parent="WIyWlLk6GJQsqaUBKTNV-1" source="iy4I2APVL6kOR7OKOTB_-25" target="iy4I2APVL6kOR7OKOTB_-31">
          <mxGeometry relative="1" as="geometry" />
        </mxCell>
        <mxCell id="iy4I2APVL6kOR7OKOTB_-25" value="Run test case" style="whiteSpace=wrap;html=1;rounded=1;shadow=0;strokeWidth=1;glass=0;" vertex="1" parent="WIyWlLk6GJQsqaUBKTNV-1">
          <mxGeometry x="50" y="812.5" width="120" height="60" as="geometry" />
        </mxCell>
        <mxCell id="iy4I2APVL6kOR7OKOTB_-31" value="TC" style="verticalLabelPosition=bottom;verticalAlign=top;html=1;shape=process;whiteSpace=wrap;rounded=1;size=0.14;arcSize=6;" vertex="1" parent="WIyWlLk6GJQsqaUBKTNV-1">
          <mxGeometry x="60" y="920" width="100" height="60" as="geometry" />
        </mxCell>
        <mxCell id="iy4I2APVL6kOR7OKOTB_-33" value="" style="endArrow=classic;html=1;exitX=0.5;exitY=1;exitDx=0;exitDy=0;entryX=1;entryY=0.5;entryDx=0;entryDy=0;" edge="1" parent="WIyWlLk6GJQsqaUBKTNV-1" source="iy4I2APVL6kOR7OKOTB_-22" target="iy4I2APVL6kOR7OKOTB_-25">
          <mxGeometry width="50" height="50" relative="1" as="geometry">
            <mxPoint x="270" y="757.5" as="sourcePoint" />
            <mxPoint x="320" y="707.5" as="targetPoint" />
            <Array as="points">
              <mxPoint x="270" y="790" />
            </Array>
          </mxGeometry>
        </mxCell>
      </root>
    </mxGraphModel>
  </diagram>
</mxfile>
